<svg width="56" height="58" viewBox="0 0 56 58" fill="none" xmlns="http://www.w3.org/2000/svg">
<path d="M40.1744 43.0621C39.5443 43.7147 38.6897 44.0813 37.7986 44.0813C36.9075 44.0813 36.0529 43.7147 35.4228 43.0621L28 34.2751L20.5772 43.0592C20.2662 43.3867 19.8956 43.6471 19.4868 43.8255C19.0781 44.0039 18.6393 44.0967 18.1958 44.0986C17.7522 44.1004 17.3127 44.0113 16.9026 43.8364C16.4925 43.6615 16.1198 43.4042 15.8062 43.0793C15.4926 42.7545 15.2441 42.3686 15.0752 41.9438C14.9063 41.519 14.8203 41.0638 14.8221 40.6044C14.8239 40.145 14.9135 39.6906 15.0858 39.2672C15.258 38.8439 15.5094 38.4601 15.8256 38.1379L23.548 29.0029L15.8228 19.8621C15.5066 19.5399 15.2552 19.1561 15.083 18.7328C14.9107 18.3094 14.8211 17.855 14.8193 17.3956C14.8175 16.9362 14.9035 16.481 15.0724 16.0562C15.2413 15.6315 15.4898 15.2455 15.8034 14.9207C16.117 14.5958 16.4897 14.3385 16.8998 14.1636C17.3099 13.9887 17.7494 13.8996 18.193 13.9014C18.6365 13.9033 19.0753 13.9961 19.484 14.1745C19.8928 14.3529 20.2634 14.6133 20.5744 14.9408L28 23.7307L35.4228 14.9408C35.7339 14.6133 36.1045 14.3529 36.5132 14.1745C36.922 13.9961 37.3607 13.9033 37.8043 13.9014C38.2478 13.8996 38.6873 13.9887 39.0975 14.1636C39.5076 14.3385 39.8802 14.5958 40.1938 14.9207C40.5075 15.2455 40.7559 15.6315 40.9248 16.0562C41.0937 16.481 41.1797 16.9362 41.1779 17.3956C41.1761 17.855 41.0865 18.3094 40.9143 18.7328C40.7421 19.1561 40.4906 19.5399 40.1744 19.8621L32.452 29.0029L40.1744 38.1379C40.4868 38.4611 40.7347 38.8449 40.9037 39.2674C41.0728 39.6898 41.1599 40.1427 41.1599 40.6C41.1599 41.0573 41.0728 41.5102 40.9037 41.9326C40.7347 42.3551 40.4868 42.7389 40.1744 43.0621V43.0621Z" fill="#FA00FF"/>
</svg>
