<svg width="84" height="31" viewBox="0 0 84 31" fill="none" xmlns="http://www.w3.org/2000/svg">
<path d="M26.1015 18.6C26.9 22.3635 29.1228 25.7077 32.3387 27.9843C35.5547 30.2608 39.5348 31.3075 43.5074 30.9215C47.48 30.5354 51.162 28.7441 53.8397 25.8948C56.5174 23.0454 58 19.3411 58 15.5C58 11.6589 56.5174 7.95457 53.8397 5.10525C51.162 2.25593 47.48 0.464592 43.5074 0.0785244C39.5348 -0.307544 35.5547 0.739163 32.3387 3.01572C29.1228 5.29227 26.9 8.63648 26.1015 12.4H12.3418L17.4654 7.47102L12.8896 3.10003L0 15.5L12.8896 27.9L17.4332 23.529L12.3418 18.6H26.1015Z" fill="#000924"/>
<path d="M57.8985 12.4C57.1 8.63648 54.8772 5.29227 51.6613 3.01572C48.4453 0.739163 44.4652 -0.307544 40.4926 0.0785244C36.52 0.464592 32.838 2.25593 30.1603 5.10525C27.4826 7.95457 26 11.6589 26 15.5C26 19.3411 27.4826 23.0454 30.1603 25.8948C32.838 28.7441 36.52 30.5354 40.4926 30.9215C44.4652 31.3075 48.4453 30.2608 51.6613 27.9843C54.8772 25.7077 57.1 22.3635 57.8985 18.6H71.6582L66.5346 23.529L71.1104 27.9L84 15.5L71.1104 3.10003L66.5668 7.47102L71.6582 12.4H57.8985Z" fill="#000924"/>
</svg>
